<svg xmlns="http://www.w3.org/2000/svg" viewBox="0 0 24 24" fill="none" stroke="currentColor" stroke-width="2" stroke-linecap="round" stroke-linejoin="round" class="lucide lucide-sparkles"><path d="M9.9 10.8c-.4.7-.7 1.4-.7 2.2 0 2.8 2.2 5 5 5 .8 0 1.5-.2 2.2-.7"/><path d="M19.2 12.8c.4-.7.7-1.4.7-2.2 0-2.8-2.2-5-5-5-.8 0-1.5.2-2.2.7"/><path d="M12 22c-1.3 0-2.6-.4-3.7-1.2C7.2 19.9 6 18.4 5.3 16.7c-.7-1.7-1-3.5-.8-5.3.2-1.8.9-3.5 2-4.9 1.1-1.4 2.6-2.5 4.3-3.1 1.7-.7 3.5-.8 5.3-.5 1.8.2 3.5.9 4.9 2 1.4 1.1 2.5 2.6 3.1 4.3.7 1.7.8 3.5.5 5.3-.2 1.8-.9 3.5-2 4.9-1.1 1.4-2.6 2.5-4.3 3.1-1.7.7-3.5.8-5.3.5z"/><path d="M12 2v20"/><path d="M2 12h20"/></svg>